<svg aria-hidden="true" style="position: absolute; width: 0; height: 0; overflow: hidden;" version="1.1" xmlns="http://www.w3.org/2000/svg" xmlns:xlink="http://www.w3.org/1999/xlink">
<defs>
<symbol id="icon-honey" viewBox="0 0 32 32">
<path fill="none" stroke="#171612" style="stroke: var(--color1, #171612)" stroke-linejoin="miter" stroke-linecap="butt" stroke-miterlimit="4" stroke-width="2.6667" d="M19.12 12.607l9.18 9.18c0.685 0.685 0.541 1.94-0.322 2.804s-2.119 1.007-2.804 0.323l-9.247-9.247"></path>
<path fill="none" stroke="#a12339" style="stroke: var(--color2, #a12339)" stroke-linejoin="miter" stroke-linecap="butt" stroke-miterlimit="4" stroke-width="2.6667" d="M9.742 3.229l-3.127 3.126c-0.207 0.205-0.37 0.449-0.483 0.717s-0.17 0.557-0.171 0.848c-0 0.291 0.056 0.579 0.168 0.848s0.274 0.513 0.48 0.719c0.206 0.206 0.45 0.369 0.719 0.48s0.557 0.168 0.848 0.167c0.291-0.001 0.579-0.059 0.848-0.171s0.512-0.276 0.717-0.483l3.126-3.127c0.404-0.417 0.628-0.976 0.624-1.556s-0.237-1.136-0.648-1.546c-0.411-0.41-0.966-0.643-1.547-0.647s-1.139 0.22-1.555 0.624zM16.515 8.96l-4.168 4.168c-0.205 0.205-0.368 0.449-0.479 0.717s-0.168 0.556-0.168 0.846c0 0.29 0.057 0.578 0.168 0.846s0.274 0.512 0.479 0.717c0.205 0.205 0.449 0.368 0.717 0.479s0.556 0.168 0.846 0.168 0.578-0.057 0.846-0.168c0.268-0.111 0.512-0.274 0.717-0.479l4.168-4.169c0.415-0.415 0.648-0.977 0.648-1.563s-0.233-1.149-0.648-1.563c-0.415-0.415-0.977-0.648-1.563-0.648s-1.149 0.234-1.563 0.648z"></path>
<path fill="none" stroke="#a12339" style="stroke: var(--color2, #a12339)" stroke-linejoin="miter" stroke-linecap="butt" stroke-miterlimit="4" stroke-width="2.6667" d="M14.942 4.265l-7.294 7.294c-0.415 0.415-0.648 0.977-0.648 1.563s0.233 1.149 0.648 1.563c0.415 0.415 0.977 0.648 1.563 0.648s1.149-0.233 1.563-0.648l7.293-7.295c0.207-0.205 0.371-0.449 0.483-0.717s0.17-0.557 0.171-0.848c0.001-0.291-0.056-0.579-0.167-0.848s-0.274-0.513-0.48-0.719c-0.206-0.206-0.45-0.369-0.719-0.48s-0.557-0.168-0.848-0.168c-0.291 0.001-0.579 0.058-0.848 0.171s-0.512 0.277-0.717 0.483z"></path>
<path fill="none" stroke="#a12339" style="stroke: var(--color2, #a12339)" stroke-linejoin="miter" stroke-linecap="round" stroke-miterlimit="4" stroke-width="2.6667" d="M9.236 15.428c0.949 2.958 0.791 5.143-0.473 6.556-1.898 2.119-1.603 7.444 2.684 7.444s5.547-5.325 1.915-7.193"></path>
</symbol>
<symbol id="icon-honey-f" viewBox="0 0 32 32">
<path fill="none" stroke="#fff" style="stroke: var(--color1, #fff)" stroke-linejoin="miter" stroke-linecap="butt" stroke-miterlimit="4" stroke-width="2.6667" d="M19.12 12.607l9.18 9.18c0.685 0.685 0.541 1.94-0.322 2.804s-2.119 1.007-2.804 0.323l-9.247-9.247"></path>
<path fill="none" stroke="#fff" style="stroke: var(--color1, #fff)" stroke-linejoin="miter" stroke-linecap="butt" stroke-miterlimit="4" stroke-width="2.6667" d="M9.742 3.229l-3.127 3.126c-0.207 0.205-0.37 0.449-0.483 0.717s-0.17 0.557-0.171 0.848 0.056 0.579 0.168 0.848c0.111 0.269 0.274 0.513 0.48 0.719s0.45 0.369 0.719 0.48c0.269 0.111 0.557 0.168 0.848 0.167s0.579-0.059 0.848-0.171c0.269-0.112 0.512-0.276 0.717-0.483l3.126-3.127c0.404-0.417 0.628-0.976 0.624-1.556s-0.237-1.136-0.648-1.546c-0.411-0.41-0.966-0.643-1.547-0.647s-1.139 0.22-1.555 0.624zM16.515 8.96l-4.168 4.168c-0.205 0.205-0.368 0.449-0.479 0.717s-0.168 0.556-0.168 0.846 0.057 0.578 0.168 0.846c0.111 0.268 0.274 0.512 0.479 0.717s0.449 0.368 0.717 0.479c0.268 0.111 0.556 0.168 0.846 0.168s0.578-0.057 0.846-0.168c0.268-0.111 0.512-0.274 0.717-0.479l4.168-4.169c0.415-0.415 0.648-0.977 0.648-1.563s-0.233-1.149-0.648-1.563c-0.415-0.415-0.977-0.648-1.563-0.648s-1.149 0.234-1.563 0.648z"></path>
<path fill="none" stroke="#fff" style="stroke: var(--color1, #fff)" stroke-linejoin="miter" stroke-linecap="butt" stroke-miterlimit="4" stroke-width="2.6667" d="M14.942 4.265l-7.294 7.294c-0.415 0.415-0.648 0.977-0.648 1.563s0.233 1.149 0.648 1.563c0.415 0.415 0.977 0.648 1.563 0.648s1.149-0.233 1.563-0.648l7.293-7.295c0.207-0.205 0.371-0.449 0.483-0.717s0.17-0.557 0.171-0.848c0.001-0.291-0.056-0.579-0.167-0.848s-0.274-0.513-0.48-0.719c-0.206-0.206-0.45-0.369-0.719-0.48s-0.557-0.168-0.848-0.168c-0.291 0.001-0.579 0.058-0.848 0.171s-0.512 0.277-0.717 0.483z"></path>
<path fill="none" stroke="#fff" style="stroke: var(--color1, #fff)" stroke-linejoin="miter" stroke-linecap="round" stroke-miterlimit="4" stroke-width="2.6667" d="M9.236 15.428c0.949 2.958 0.791 5.143-0.473 6.556-1.898 2.119-1.603 7.444 2.684 7.444s5.547-5.325 1.915-7.193"></path>
</symbol>
</defs>
</svg>
