<svg aria-hidden="true" style="position: absolute; width: 0; height: 0; overflow: hidden;" version="1.1" xmlns="http://www.w3.org/2000/svg" xmlns:xlink="http://www.w3.org/1999/xlink">
<defs>
<symbol id="icon-sun" viewBox="0 0 33 32">
<path d="M28.28 20l-3.16-2.36 1.56-3.64-4-0.46-0.4-3.94-3.64 1.56-2.36-3.16-2.36 3.16-3.64-1.56-0.46 4-3.94 0.4 1.56 3.64-3.16 2.36h-4v2h32v-2h-4zM8.28 20c0.071-2.097 0.935-4.088 2.417-5.573s3.472-2.352 5.569-2.427c2.099 0.068 4.094 0.93 5.582 2.412s2.357 3.475 2.432 5.574l-16 0.014z"></path>
</symbol>
<symbol id="icon-bad" viewBox="0 0 33 32">
<path d="M10.214 16.8l4.767-3.467-4.767-3.467-1.2 1.6 2.567 1.867-2.567 1.867 1.2 1.6zM22.347 16.8l1.2-1.6-2.567-1.867 2.567-1.867-1.2-1.6-4.767 3.467 4.767 3.467zM14.28 22.733l2-2 2 2 2-2 1.3 1.3 1.4-1.4-2.7-2.7-2 2-2-2-2 2-2-2-2.7 2.7 1.4 1.4 1.3-1.3 2 2zM16.28 29.333c-1.844 0-3.578-0.35-5.2-1.051s-3.033-1.65-4.233-2.849c-1.2-1.2-2.15-2.611-2.849-4.233s-1.050-3.356-1.051-5.2c0-1.844 0.35-3.578 1.051-5.2s1.65-3.033 2.849-4.233c1.2-1.2 2.611-2.15 4.233-2.849s3.356-1.050 5.2-1.051c1.844 0 3.578 0.35 5.2 1.051s3.033 1.65 4.233 2.849c1.2 1.2 2.15 2.611 2.851 4.233s1.050 3.356 1.049 5.2c0 1.844-0.35 3.578-1.051 5.2s-1.65 3.033-2.849 4.233c-1.2 1.2-2.611 2.15-4.233 2.851s-3.356 1.050-5.2 1.049zM16.28 26.667c2.978 0 5.5-1.033 7.567-3.1s3.1-4.589 3.1-7.567c0-2.978-1.033-5.5-3.1-7.567s-4.589-3.1-7.567-3.1c-2.978 0-5.5 1.033-7.567 3.1s-3.1 4.589-3.1 7.567c0 2.978 1.033 5.5 3.1 7.567s4.589 3.1 7.567 3.1z"></path>
</symbol>
<symbol id="icon-food" viewBox="0 0 33 32">
<path d="M11.757 14.98c0.26-0.052 0.489-0.205 0.636-0.426s0.201-0.491 0.149-0.751-0.205-0.489-0.426-0.636c-0.221-0.147-0.491-0.201-0.751-0.149-1.204 0.24-2.113 1.083-2.597 2.212-0.48 1.117-0.551 2.515-0.176 4.011 0.029 0.13 0.084 0.253 0.162 0.361s0.176 0.2 0.289 0.27c0.113 0.070 0.24 0.116 0.371 0.137s0.266 0.014 0.395-0.018 0.251-0.090 0.357-0.17c0.107-0.080 0.196-0.18 0.264-0.295s0.111-0.242 0.128-0.375c0.017-0.132 0.008-0.266-0.027-0.395-0.293-1.171-0.197-2.107 0.073-2.739 0.267-0.621 0.691-0.945 1.152-1.039zM7.855 4.559c-0.057 0.947 0.082 1.895 0.407 2.786s0.831 1.705 1.485 2.392c-1.27 0.364-2.407 1.089-3.274 2.087s-1.424 2.226-1.606 3.534c-0.439 3.14 0.205 6.336 1.827 9.061l0.467 0.787c0.018 0.029 0.037 0.057 0.057 0.084l1.888 2.541c0.4 0.539 0.912 0.984 1.502 1.304s1.242 0.508 1.911 0.551c0.669 0.043 1.34-0.061 1.966-0.304s1.19-0.619 1.655-1.103c0.054-0.057 0.12-0.102 0.192-0.132s0.15-0.047 0.228-0.047c0.078 0 0.156 0.016 0.228 0.047s0.137 0.076 0.192 0.132c0.465 0.484 1.030 0.86 1.655 1.103s1.296 0.347 1.965 0.304c0.669-0.043 1.322-0.231 1.911-0.551s1.102-0.765 1.502-1.304l1.888-2.543c0.020-0.027 0.039-0.055 0.056-0.084l0.468-0.787c1.622-2.724 2.268-5.92 1.831-9.060-0.129-0.925-0.447-1.814-0.933-2.612s-1.132-1.487-1.895-2.025c-0.764-0.538-1.63-0.914-2.545-1.104s-1.859-0.19-2.774-0.001l-2.539 0.525c0.040-1.040 0.203-2.16 0.521-3.117 0.387-1.157 0.923-1.853 1.52-2.101 0.245-0.102 0.439-0.298 0.54-0.543s0.1-0.521-0.002-0.766c-0.102-0.245-0.297-0.439-0.543-0.54s-0.521-0.1-0.766 0.002c-1.403 0.585-2.2 1.973-2.647 3.315l-0.061 0.189c-0.328-0.634-0.752-1.215-1.257-1.72-0.691-0.692-1.522-1.23-2.437-1.577s-1.893-0.496-2.87-0.437c-0.446 0.026-0.867 0.214-1.183 0.529s-0.505 0.736-0.532 1.181l0.001 0.001zM9.846 4.835c0.669-0.019 1.335 0.098 1.957 0.346s1.187 0.62 1.659 1.094c0.474 0.473 0.846 1.037 1.094 1.659s0.366 1.288 0.346 1.957c-0.242 0.007-0.484-0.005-0.724-0.033l-0.823-0.171c-0.782-0.233-1.493-0.658-2.069-1.236-0.474-0.473-0.846-1.037-1.094-1.659s-0.365-1.288-0.346-1.957zM12.605 11.573l0.269 0.056c0.32 0.091 0.645 0.159 0.973 0.203l1.293 0.267c0.937 0.194 1.903 0.194 2.84 0l2.536-0.525c0.647-0.134 1.314-0.134 1.961 0s1.259 0.4 1.799 0.781c0.54 0.381 0.996 0.868 1.34 1.432s0.568 1.193 0.66 1.847c0.374 2.69-0.179 5.428-1.569 7.761l-0.441 0.743-1.857 2.501c-0.227 0.305-0.517 0.558-0.851 0.739s-0.704 0.288-1.083 0.312c-0.379 0.024-0.76-0.035-1.114-0.173s-0.674-0.351-0.938-0.625c-0.241-0.251-0.53-0.45-0.85-0.586s-0.664-0.206-1.012-0.206-0.692 0.070-1.012 0.206c-0.32 0.136-0.609 0.336-0.85 0.586-0.263 0.274-0.584 0.488-0.938 0.625s-0.735 0.197-1.114 0.173c-0.379-0.024-0.749-0.131-1.083-0.312s-0.625-0.434-0.851-0.739l-1.857-2.501-0.441-0.743c-1.39-2.334-1.943-5.071-1.568-7.761 0.091-0.654 0.316-1.283 0.66-1.847s0.8-1.051 1.34-1.432c0.54-0.381 1.152-0.646 1.799-0.781s1.314-0.135 1.961-0.001z"></path>
</symbol>
<symbol id="icon-SVG" viewBox="0 0 34 32">
<path fill="#d0919c" style="fill: var(--color1, #d0919c)" d="M10.703 3.292c0.093-0.093 0.203-0.167 0.325-0.217s0.252-0.076 0.383-0.076c0.132 0 0.262 0.026 0.383 0.076s0.232 0.124 0.325 0.217l12 12c0.093 0.093 0.167 0.203 0.217 0.325s0.076 0.252 0.076 0.383c0 0.132-0.026 0.262-0.076 0.383s-0.124 0.232-0.217 0.325l-12 12c-0.188 0.188-0.442 0.293-0.708 0.293s-0.52-0.105-0.708-0.293c-0.188-0.188-0.293-0.442-0.293-0.708s0.105-0.52 0.293-0.708l11.294-11.292-11.294-11.292c-0.093-0.093-0.167-0.203-0.217-0.325s-0.076-0.252-0.076-0.383c0-0.132 0.026-0.262 0.076-0.383s0.124-0.232 0.217-0.325z"></path>
</symbol>
<symbol id="icon-icon-send" viewBox="0 0 35 32">
<path fill="#fff" style="fill: var(--color1, #fff)" d="M34.064 0l-33.432 18 10.684 3.788 16.479-14.788-12.535 16.186 0.010 0.004-0.013-0.004v8.814l5.992-6.691 7.59 2.691 5.224-28z"></path>
</symbol>
</defs>
</svg>
